# xmcd
#
# Track frame offsets:
#	150
#	13155
#	23745
#	36650
#	55150
#
# Disc length: 940
#
# Revision: 1
# Processed by: cddbd v1.5.1PL0 Copyright (c) Steve Scherf et al.
# Submitted via: ExactAudioCopy v0.90a11
# Normalized: r0:DSETVAR1,TDELIM( - )
#
DISCID=3c03aa05
DTITLE=Various Artist - the Derek Lawrence sampler
DYEAR=1900
DGENRE=
TTITLE0=Jethro Tull - Blues For The 18th
TTITLE1=Hot Chocolate - Love I Love You
TTITLE2=Earl Jordan - Heaven Sent You
TTITLE3=Carl Wayne - In The Midnight Hour
TTITLE4=Green Bullfrog - Who Do You Love
EXTD=
EXTT0=
EXTT1=
EXTT2=
EXTT3=
EXTT4=
PLAYORDER=
